<svg xmlns="http://www.w3.org/2000/svg" width="24" height="24" viewBox="0 0 24 24" fill="none" stroke="#1F6D5B" stroke-width="1.7" stroke-linecap="round" stroke-linejoin="round">
  <!-- Capsule (tilted), with slot highlight and center divider -->
  <g transform="rotate(-35 7 7.5)">
    <rect x="4" y="1.5" width="6" height="12" rx="3"/>
    <line x1="4" y1="7.5" x2="10" y2="7.5"/>
    <line x1="7" y1="3.7" x2="7" y2="5.3"/>
  </g>
  <!-- Syringe (tilted): plunger, flange, barrel with ticks, hub, needle -->
  <g transform="rotate(45 16 13)">
    <line x1="16.2" y1="7.9" x2="16.2" y2="5.1"/>
    <line x1="15" y1="5.1" x2="17.4" y2="5.1"/>
    <line x1="13.5" y1="8" x2="18.9" y2="8"/>
    <rect x="14" y="8" width="4.4" height="9" rx="0.7"/>
    <line x1="14.05" y1="10" x2="15.7" y2="10"/>
    <line x1="14.05" y1="11.7" x2="15.7" y2="11.7"/>
    <line x1="14.05" y1="13.4" x2="15.7" y2="13.4"/>
    <path d="M15.4 17 L17 17 L16.45 18.7 L15.95 18.7 Z"/>
    <line x1="16.2" y1="18.7" x2="16.2" y2="21.3"/>
  </g>
</svg>
